# xmcd
#
# Track frame offsets: 
#        150
#        10914
#        26017
#        38091
#        49656
#        62133
#
# Disc length: 1050 seconds
#
# Revision: 0
# Processed by: cddbd v1.5.2PL0 Copyright (c) Steve Scherf et al.
# Submitted via: ExactAudioCopyFreeDBPlugin 1.0
#
DISCID=45041806
DTITLE=Audrey et Les Faces B - En quinconce
DYEAR=2012
DGENRE=Swing
TTITLE0=When You're Smiling (The Whole World Smiles With You)
TTITLE1=Shake Hands And Tell Me Goodbye
TTITLE2=I Get Ideas
TTITLE3=Shake Your Money Maker
TTITLE4=Cry To Me
TTITLE5=Lipstick Traces (On A Cigarette)
EXTD=
EXTT0=
EXTT1=
EXTT2=
EXTT3=
EXTT4=
EXTT5=
PLAYORDER=
